<mxfile host="app.diagrams.net" agent="Mozilla/5.0 (Windows NT 10.0; Win64; x64) AppleWebKit/537.36 (KHTML, like Gecko) Chrome/127.0.0.0 Safari/537.36" version="24.7.6">
  <diagram name="Page-1" id="cX0kxbFZh29P0olcfpTS">
    <mxGraphModel dx="1050" dy="557" grid="1" gridSize="10" guides="1" tooltips="1" connect="1" arrows="1" fold="1" page="1" pageScale="1" pageWidth="850" pageHeight="1100" math="0" shadow="0">
      <root>
        <mxCell id="0" />
        <mxCell id="1" parent="0" />
        <mxCell id="t4aqj3F0C9S1Qvwjmft5-1" value="Actor" style="shape=umlActor;verticalLabelPosition=bottom;verticalAlign=top;html=1;outlineConnect=0;" vertex="1" parent="1">
          <mxGeometry x="257.5" y="210" width="30" height="60" as="geometry" />
        </mxCell>
        <mxCell id="t4aqj3F0C9S1Qvwjmft5-2" value="Register" style="rounded=1;whiteSpace=wrap;html=1;" vertex="1" parent="1">
          <mxGeometry x="220" y="350" width="105" height="40" as="geometry" />
        </mxCell>
        <mxCell id="t4aqj3F0C9S1Qvwjmft5-3" value="View" style="rounded=1;whiteSpace=wrap;html=1;" vertex="1" parent="1">
          <mxGeometry x="400.5" y="480" width="105" height="40" as="geometry" />
        </mxCell>
        <mxCell id="t4aqj3F0C9S1Qvwjmft5-4" value="Login" style="rounded=1;whiteSpace=wrap;html=1;" vertex="1" parent="1">
          <mxGeometry x="220" y="480" width="105" height="40" as="geometry" />
        </mxCell>
        <mxCell id="t4aqj3F0C9S1Qvwjmft5-5" value="Create blogs" style="rounded=1;whiteSpace=wrap;html=1;" vertex="1" parent="1">
          <mxGeometry x="220" y="600" width="105" height="40" as="geometry" />
        </mxCell>
        <mxCell id="t4aqj3F0C9S1Qvwjmft5-6" value="Publish blogs" style="rounded=1;whiteSpace=wrap;html=1;" vertex="1" parent="1">
          <mxGeometry x="220" y="720" width="105" height="40" as="geometry" />
        </mxCell>
        <mxCell id="t4aqj3F0C9S1Qvwjmft5-7" value="Add Comments" style="rounded=1;whiteSpace=wrap;html=1;" vertex="1" parent="1">
          <mxGeometry x="30" y="600" width="105" height="40" as="geometry" />
        </mxCell>
        <mxCell id="t4aqj3F0C9S1Qvwjmft5-8" value="" style="endArrow=classic;html=1;rounded=0;exitX=1;exitY=0.75;exitDx=0;exitDy=0;" edge="1" parent="1" source="t4aqj3F0C9S1Qvwjmft5-2">
          <mxGeometry width="50" height="50" relative="1" as="geometry">
            <mxPoint x="390" y="590" as="sourcePoint" />
            <mxPoint x="440" y="480" as="targetPoint" />
            <Array as="points">
              <mxPoint x="440" y="380" />
            </Array>
          </mxGeometry>
        </mxCell>
        <mxCell id="t4aqj3F0C9S1Qvwjmft5-10" value="" style="endArrow=classic;html=1;rounded=0;entryX=0.5;entryY=0;entryDx=0;entryDy=0;exitX=0.5;exitY=1;exitDx=0;exitDy=0;" edge="1" parent="1" source="t4aqj3F0C9S1Qvwjmft5-2" target="t4aqj3F0C9S1Qvwjmft5-4">
          <mxGeometry width="50" height="50" relative="1" as="geometry">
            <mxPoint x="248" y="420" as="sourcePoint" />
            <mxPoint x="297.5" y="390" as="targetPoint" />
          </mxGeometry>
        </mxCell>
        <mxCell id="t4aqj3F0C9S1Qvwjmft5-11" value="" style="endArrow=classic;html=1;rounded=0;exitX=0.5;exitY=1;exitDx=0;exitDy=0;" edge="1" parent="1">
          <mxGeometry width="50" height="50" relative="1" as="geometry">
            <mxPoint x="272" y="520" as="sourcePoint" />
            <mxPoint x="272" y="600" as="targetPoint" />
          </mxGeometry>
        </mxCell>
        <mxCell id="t4aqj3F0C9S1Qvwjmft5-12" value="" style="endArrow=classic;html=1;rounded=0;exitX=0.5;exitY=1;exitDx=0;exitDy=0;" edge="1" parent="1">
          <mxGeometry width="50" height="50" relative="1" as="geometry">
            <mxPoint x="272" y="640" as="sourcePoint" />
            <mxPoint x="272" y="720" as="targetPoint" />
          </mxGeometry>
        </mxCell>
        <mxCell id="t4aqj3F0C9S1Qvwjmft5-13" value="" style="endArrow=classic;html=1;rounded=0;exitX=0.5;exitY=1;exitDx=0;exitDy=0;" edge="1" parent="1">
          <mxGeometry width="50" height="50" relative="1" as="geometry">
            <mxPoint x="272" y="290" as="sourcePoint" />
            <mxPoint x="270" y="350" as="targetPoint" />
          </mxGeometry>
        </mxCell>
        <mxCell id="t4aqj3F0C9S1Qvwjmft5-14" value="" style="endArrow=classic;html=1;rounded=0;entryX=0.385;entryY=0.005;entryDx=0;entryDy=0;entryPerimeter=0;exitX=0;exitY=0.5;exitDx=0;exitDy=0;" edge="1" parent="1" target="t4aqj3F0C9S1Qvwjmft5-7">
          <mxGeometry width="50" height="50" relative="1" as="geometry">
            <mxPoint x="220" y="490" as="sourcePoint" />
            <mxPoint x="120" y="470" as="targetPoint" />
            <Array as="points">
              <mxPoint x="70" y="490" />
            </Array>
          </mxGeometry>
        </mxCell>
        <mxCell id="t4aqj3F0C9S1Qvwjmft5-15" value="" style="endArrow=classic;html=1;rounded=0;entryX=1;entryY=0.5;entryDx=0;entryDy=0;exitX=0.5;exitY=1;exitDx=0;exitDy=0;" edge="1" parent="1" source="t4aqj3F0C9S1Qvwjmft5-3" target="t4aqj3F0C9S1Qvwjmft5-6">
          <mxGeometry width="50" height="50" relative="1" as="geometry">
            <mxPoint x="390" y="620" as="sourcePoint" />
            <mxPoint x="440" y="570" as="targetPoint" />
            <Array as="points">
              <mxPoint x="450" y="740" />
            </Array>
          </mxGeometry>
        </mxCell>
        <mxCell id="t4aqj3F0C9S1Qvwjmft5-16" value="" style="endArrow=classic;html=1;rounded=0;entryX=0;entryY=0.5;entryDx=0;entryDy=0;exitX=0.362;exitY=1.025;exitDx=0;exitDy=0;exitPerimeter=0;" edge="1" parent="1" source="t4aqj3F0C9S1Qvwjmft5-7">
          <mxGeometry width="50" height="50" relative="1" as="geometry">
            <mxPoint x="68" y="650" as="sourcePoint" />
            <mxPoint x="220" y="740.6" as="targetPoint" />
            <Array as="points">
              <mxPoint x="68" y="740.6" />
            </Array>
          </mxGeometry>
        </mxCell>
        <mxCell id="t4aqj3F0C9S1Qvwjmft5-17" value="&lt;b&gt;Flow diagram&lt;/b&gt;" style="text;html=1;align=center;verticalAlign=middle;whiteSpace=wrap;rounded=0;" vertex="1" parent="1">
          <mxGeometry x="220" y="170" width="120" height="30" as="geometry" />
        </mxCell>
      </root>
    </mxGraphModel>
  </diagram>
</mxfile>
